<?xml version="1.0" encoding="UTF-8" standalone="no"?>
<!DOCTYPE svg PUBLIC "-//W3C//DTD SVG 1.1//EN"
 "http://www.w3.org/Graphics/SVG/1.1/DTD/svg11.dtd">
<!-- Generated by graphviz version 2.36.0 (20140111.2315)
 -->
<!-- Title: lotsameans Pages: 1 -->
<svg width="630pt" height="518pt"
 viewBox="0.00 0.00 630.07 518.14" xmlns="http://www.w3.org/2000/svg" xmlns:xlink="http://www.w3.org/1999/xlink">
<g id="graph0" class="graph" transform="scale(1 1) rotate(0) translate(4 514.142)">
<title>lotsameans</title>
<polygon fill="white" stroke="none" points="-4,4 -4,-514.142 626.073,-514.142 626.073,4 -4,4"/>
<!-- xml -->
<g id="node1" class="node"><title>xml</title>
<ellipse fill="none" stroke="black" cx="435.435" cy="-18" rx="61.99" ry="18"/>
<text text-anchor="middle" x="435.435" y="-14.3" font-family="Times,serif" font-size="14.00">XML Schema</text>
</g>
<!-- uml -->
<g id="node2" class="node"><title>uml</title>
<ellipse fill="none" stroke="black" cx="569.747" cy="-250.636" rx="52.1524" ry="26.7407"/>
<text text-anchor="middle" x="569.747" y="-254.436" font-family="Times,serif" font-size="14.00">UML</text>
<text text-anchor="middle" x="569.747" y="-239.436" font-family="Times,serif" font-size="14.00">(via XMI)</text>
</g>
<!-- xml&#45;&#45;uml -->
<g id="edge1" class="edge"><title>xml&#45;&#45;uml</title>
<path fill="none" stroke="black" d="M445.751,-35.8683C469.339,-76.7243 527.293,-177.103 554.796,-224.739"/>
</g>
<!-- json -->
<g id="node3" class="node"><title>json</title>
<ellipse fill="none" stroke="black" cx="32.4971" cy="-250.636" rx="32.4942" ry="18"/>
<text text-anchor="middle" x="32.4971" y="-246.936" font-family="Times,serif" font-size="14.00">JSON</text>
</g>
<!-- xml&#45;&#45;json -->
<g id="edge2" class="edge"><title>xml&#45;&#45;json</title>
<path fill="none" stroke="black" d="M407.421,-34.1738C331.749,-77.863 124.289,-197.64 55.2105,-237.523"/>
</g>
<!-- rdf -->
<g id="node4" class="node"><title>rdf</title>
<ellipse fill="none" stroke="black" cx="166.81" cy="-483.272" rx="51.9908" ry="18"/>
<text text-anchor="middle" x="166.81" y="-479.572" font-family="Times,serif" font-size="14.00">RDF/OWL</text>
</g>
<!-- xml&#45;&#45;rdf -->
<g id="edge3" class="edge"><title>xml&#45;&#45;rdf</title>
<path fill="none" stroke="black" d="M425.069,-35.9541C382.258,-110.104 219.483,-392.04 177.001,-465.621"/>
</g>
<!-- dot -->
<g id="node5" class="node"><title>dot</title>
<ellipse fill="none" stroke="black" cx="435.435" cy="-483.272" rx="104.804" ry="26.7407"/>
<text text-anchor="middle" x="435.435" y="-487.072" font-family="Times,serif" font-size="14.00">Diagrams</text>
<text text-anchor="middle" x="435.435" y="-472.072" font-family="Times,serif" font-size="14.00">(DOT, Mermaid, SVG)</text>
</g>
<!-- xml&#45;&#45;dot -->
<g id="edge4" class="edge"><title>xml&#45;&#45;dot</title>
<path fill="none" stroke="black" d="M435.435,-36.2392C435.435,-107.98 435.435,-370.984 435.435,-456.333"/>
</g>
<!-- sql -->
<g id="node6" class="node"><title>sql</title>
<ellipse fill="none" stroke="black" cx="166.81" cy="-18" rx="27.8951" ry="18"/>
<text text-anchor="middle" x="166.81" y="-14.3" font-family="Times,serif" font-size="14.00">SQL</text>
</g>
<!-- xml&#45;&#45;sql -->
<g id="edge5" class="edge"><title>xml&#45;&#45;sql</title>
<path fill="none" stroke="black" d="M373.47,-18C317.225,-18 236.854,-18 194.839,-18"/>
</g>
<!-- uml&#45;&#45;json -->
<g id="edge6" class="edge"><title>uml&#45;&#45;json</title>
<path fill="none" stroke="black" d="M517.255,-250.636C407.153,-250.636 154.84,-250.636 64.9994,-250.636"/>
</g>
<!-- uml&#45;&#45;rdf -->
<g id="edge7" class="edge"><title>uml&#45;&#45;rdf</title>
<path fill="none" stroke="black" d="M534.694,-270.874C455.522,-316.584 264.28,-426.998 193.627,-467.789"/>
</g>
<!-- uml&#45;&#45;dot -->
<g id="edge8" class="edge"><title>uml&#45;&#45;dot</title>
<path fill="none" stroke="black" d="M554.86,-276.421C529.179,-320.902 476.81,-411.608 450.801,-456.657"/>
</g>
<!-- uml&#45;&#45;sql -->
<g id="edge9" class="edge"><title>uml&#45;&#45;sql</title>
<path fill="none" stroke="black" d="M534.694,-230.398C453.32,-183.417 253.556,-68.0832 188.017,-30.2443"/>
</g>
<!-- json&#45;&#45;rdf -->
<g id="edge10" class="edge"><title>json&#45;&#45;rdf</title>
<path fill="none" stroke="black" d="M42.5924,-268.122C67.4835,-311.234 131.584,-422.259 156.597,-465.584"/>
</g>
<!-- json&#45;&#45;dot -->
<g id="edge11" class="edge"><title>json&#45;&#45;dot</title>
<path fill="none" stroke="black" d="M55.0242,-263.642C119.827,-301.056 307.507,-409.413 392.596,-458.539"/>
</g>
<!-- json&#45;&#45;sql -->
<g id="edge12" class="edge"><title>json&#45;&#45;sql</title>
<path fill="none" stroke="black" d="M42.5924,-233.151C67.6055,-189.827 132.213,-77.9233 156.962,-35.0562"/>
</g>
<!-- rdf&#45;&#45;dot -->
<g id="edge13" class="edge"><title>rdf&#45;&#45;dot</title>
<path fill="none" stroke="black" d="M218.922,-483.272C250.657,-483.272 292.341,-483.272 330.652,-483.272"/>
</g>
<!-- rdf&#45;&#45;sql -->
<g id="edge14" class="edge"><title>rdf&#45;&#45;sql</title>
<path fill="none" stroke="black" d="M166.81,-465.033C166.81,-390.604 166.81,-110.309 166.81,-36.1131"/>
</g>
<!-- dot&#45;&#45;sql -->
<g id="edge15" class="edge"><title>dot&#45;&#45;sql</title>
<path fill="none" stroke="black" d="M420.028,-456.586C370.641,-371.045 217.15,-105.191 176.676,-35.0888"/>
</g>
</g>
</svg>
