<?xml version="1.0" encoding="UTF-8" standalone="no"?>
<!DOCTYPE svg PUBLIC "-//W3C//DTD SVG 1.1//EN"
 "http://www.w3.org/Graphics/SVG/1.1/DTD/svg11.dtd">
<!-- Generated by graphviz version 2.36.0 (20140111.2315)
 -->
<!-- Title: lotsameans Pages: 1 -->
<svg width="333pt" height="271pt"
 viewBox="0.00 0.00 333.33 270.59" xmlns="http://www.w3.org/2000/svg" xmlns:xlink="http://www.w3.org/1999/xlink">
<g id="graph0" class="graph" transform="scale(1 1) rotate(0) translate(4 266.587)">
<title>lotsameans</title>
<polygon fill="white" stroke="none" points="-4,4 -4,-266.587 329.334,-266.587 329.334,4 -4,4"/>
<!-- xml -->
<g id="node1" class="node"><title>xml</title>
<ellipse fill="none" stroke="black" cx="228.727" cy="-18" rx="31.3957" ry="18"/>
<text text-anchor="middle" x="228.727" y="-14.3" font-family="Times,serif" font-size="14.00">XML</text>
</g>
<!-- uml -->
<g id="node2" class="node"><title>uml</title>
<ellipse fill="none" stroke="black" cx="294.137" cy="-131.293" rx="31.3957" ry="18"/>
<text text-anchor="middle" x="294.137" y="-127.593" font-family="Times,serif" font-size="14.00">UML</text>
</g>
<!-- xml&#45;&#45;uml -->
<g id="edge1" class="edge"><title>xml&#45;&#45;uml</title>
<path fill="none" stroke="black" stroke-dasharray="1,5" d="M238.661,-35.2068C250.955,-56.5009 271.772,-92.556 284.109,-113.925"/>
</g>
<!-- json -->
<g id="node3" class="node"><title>json</title>
<ellipse fill="none" stroke="black" cx="32.4971" cy="-131.293" rx="32.4942" ry="18"/>
<text text-anchor="middle" x="32.4971" y="-127.593" font-family="Times,serif" font-size="14.00">JSON</text>
</g>
<!-- xml&#45;&#45;json -->
<g id="edge2" class="edge"><title>xml&#45;&#45;json</title>
<path fill="none" stroke="black" stroke-dasharray="1,5" d="M206.598,-30.776C169.011,-52.4769 93.0881,-96.3111 55.1486,-118.215"/>
</g>
<!-- rdf -->
<g id="node4" class="node"><title>rdf</title>
<ellipse fill="none" stroke="black" cx="97.907" cy="-244.587" rx="28.6953" ry="18"/>
<text text-anchor="middle" x="97.907" y="-240.887" font-family="Times,serif" font-size="14.00">RDF</text>
</g>
<!-- xml&#45;&#45;rdf -->
<g id="edge3" class="edge"><title>xml&#45;&#45;rdf</title>
<path fill="none" stroke="black" stroke-dasharray="1,5" d="M218.679,-35.4036C194.268,-77.6843 132.071,-185.413 107.81,-227.434"/>
</g>
<!-- dot -->
<g id="node5" class="node"><title>dot</title>
<ellipse fill="none" stroke="black" cx="228.727" cy="-244.587" rx="29.4969" ry="18"/>
<text text-anchor="middle" x="228.727" y="-240.887" font-family="Times,serif" font-size="14.00">SVG</text>
</g>
<!-- xml&#45;&#45;dot -->
<g id="edge4" class="edge"><title>xml&#45;&#45;dot</title>
<path fill="none" stroke="black" stroke-dasharray="1,5" d="M228.727,-36.1595C228.727,-78.5859 228.727,-183.829 228.727,-226.341"/>
</g>
<!-- sql -->
<g id="node6" class="node"><title>sql</title>
<ellipse fill="none" stroke="black" cx="97.907" cy="-18" rx="27.8951" ry="18"/>
<text text-anchor="middle" x="97.907" y="-14.3" font-family="Times,serif" font-size="14.00">SQL</text>
</g>
<!-- xml&#45;&#45;sql -->
<g id="edge5" class="edge"><title>xml&#45;&#45;sql</title>
<path fill="none" stroke="black" stroke-dasharray="1,5" d="M197.392,-18C175.622,-18 146.866,-18 125.871,-18"/>
</g>
<!-- uml&#45;&#45;json -->
<g id="edge6" class="edge"><title>uml&#45;&#45;json</title>
<path fill="none" stroke="black" stroke-dasharray="1,5" d="M262.837,-131.293C212.921,-131.293 115.766,-131.293 65.0638,-131.293"/>
</g>
<!-- uml&#45;&#45;rdf -->
<g id="edge7" class="edge"><title>uml&#45;&#45;rdf</title>
<path fill="none" stroke="black" stroke-dasharray="1,5" d="M272.008,-144.069C233.92,-166.06 156.467,-210.777 119.061,-232.373"/>
</g>
<!-- uml&#45;&#45;dot -->
<g id="edge8" class="edge"><title>uml&#45;&#45;dot</title>
<path fill="none" stroke="black" stroke-dasharray="1,5" d="M284.202,-148.5C271.837,-169.918 250.85,-206.269 238.54,-227.589"/>
</g>
<!-- uml&#45;&#45;sql -->
<g id="edge9" class="edge"><title>uml&#45;&#45;sql</title>
<path fill="none" stroke="black" stroke-dasharray="1,5" d="M272.008,-118.517C233.82,-96.4692 156.059,-51.5739 118.767,-30.0435"/>
</g>
<!-- json&#45;&#45;rdf -->
<g id="edge10" class="edge"><title>json&#45;&#45;rdf</title>
<path fill="none" stroke="black" stroke-dasharray="1,5" d="M42.4315,-148.5C54.7971,-169.918 75.7844,-206.269 88.0935,-227.589"/>
</g>
<!-- json&#45;&#45;dot -->
<g id="edge11" class="edge"><title>json&#45;&#45;dot</title>
<path fill="none" stroke="black" stroke-dasharray="1,5" d="M55.0072,-144.29C93.1612,-166.318 170.019,-210.691 207.374,-232.258"/>
</g>
<!-- json&#45;&#45;sql -->
<g id="edge12" class="edge"><title>json&#45;&#45;sql</title>
<path fill="none" stroke="black" stroke-dasharray="1,5" d="M42.4315,-114.087C54.7971,-92.6687 75.7844,-56.3176 88.0935,-34.9975"/>
</g>
<!-- rdf&#45;&#45;dot -->
<g id="edge13" class="edge"><title>rdf&#45;&#45;dot</title>
<path fill="none" stroke="black" stroke-dasharray="1,5" d="M126.616,-244.587C148.127,-244.587 177.467,-244.587 199.178,-244.587"/>
</g>
<!-- rdf&#45;&#45;sql -->
<g id="edge14" class="edge"><title>rdf&#45;&#45;sql</title>
<path fill="none" stroke="black" stroke-dasharray="1,5" d="M97.907,-226.427C97.907,-184.001 97.907,-78.7577 97.907,-36.246"/>
</g>
<!-- dot&#45;&#45;sql -->
<g id="edge15" class="edge"><title>dot&#45;&#45;sql</title>
<path fill="none" stroke="black" stroke-dasharray="1,5" d="M218.894,-227.556C194.591,-185.461 131.911,-76.8963 107.675,-34.9194"/>
</g>
</g>
</svg>
