<?xml version="1.0" encoding="UTF-8" standalone="no"?>
<!DOCTYPE svg PUBLIC "-//W3C//DTD SVG 1.1//EN"
 "http://www.w3.org/Graphics/SVG/1.1/DTD/svg11.dtd">
<!-- Generated by graphviz version 2.36.0 (20140111.2315)
 -->
<!-- Title: modelmeans Pages: 1 -->
<svg width="891pt" height="570pt"
 viewBox="0.00 0.00 891.37 569.72" xmlns="http://www.w3.org/2000/svg" xmlns:xlink="http://www.w3.org/1999/xlink">
<g id="graph0" class="graph" transform="scale(1 1) rotate(0) translate(4 565.716)">
<title>modelmeans</title>
<polygon fill="white" stroke="none" points="-4,4 -4,-565.716 887.366,-565.716 887.366,4 -4,4"/>
<!-- xml -->
<g id="node1" class="node"><title>xml</title>
<ellipse fill="none" stroke="black" cx="61.7445" cy="-282.707" rx="61.99" ry="18"/>
<text text-anchor="middle" x="61.7445" y="-279.007" font-family="Times,serif" font-size="14.00">XML Schema</text>
</g>
<!-- uml -->
<g id="node2" class="node"><title>uml</title>
<ellipse fill="none" stroke="black" cx="343.712" cy="-135.949" rx="52.1524" ry="26.7407"/>
<text text-anchor="middle" x="343.712" y="-139.749" font-family="Times,serif" font-size="14.00">UML</text>
<text text-anchor="middle" x="343.712" y="-124.749" font-family="Times,serif" font-size="14.00">(via XMI)</text>
</g>
<!-- json -->
<g id="node3" class="node"><title>json</title>
<ellipse fill="none" stroke="black" cx="616.633" cy="-18" rx="32.4942" ry="18"/>
<text text-anchor="middle" x="616.633" y="-14.3" font-family="Times,serif" font-size="14.00">JSON</text>
</g>
<!-- rdf -->
<g id="node4" class="node"><title>rdf</title>
<ellipse fill="none" stroke="black" cx="831.371" cy="-223.237" rx="51.9908" ry="18"/>
<text text-anchor="middle" x="831.371" y="-219.537" font-family="Times,serif" font-size="14.00">RDF/OWL</text>
</g>
<!-- dot -->
<g id="node5" class="node"><title>dot</title>
<ellipse fill="none" stroke="black" cx="662.662" cy="-534.846" rx="104.804" ry="26.7407"/>
<text text-anchor="middle" x="662.662" y="-538.646" font-family="Times,serif" font-size="14.00">Diagrams</text>
<text text-anchor="middle" x="662.662" y="-523.646" font-family="Times,serif" font-size="14.00">(DOT, Mermaid, SVG)</text>
</g>
<!-- sql -->
<g id="node6" class="node"><title>sql</title>
<ellipse fill="none" stroke="black" cx="343.712" cy="-429.465" rx="27.8951" ry="18"/>
<text text-anchor="middle" x="343.712" y="-425.765" font-family="Times,serif" font-size="14.00">SQL</text>
</g>
<!-- niem -->
<g id="node7" class="node"><title>niem</title>
<ellipse fill="none" stroke="black" cx="569.084" cy="-282.707" rx="92.0841" ry="18"/>
<text text-anchor="middle" x="569.084" y="-279.007" font-family="Times,serif" font-size="14.00">NIEM Model Instance</text>
</g>
<!-- niem&#45;&#45;xml -->
<g id="edge1" class="edge"><title>niem&#45;&#45;xml</title>
<path fill="none" stroke="black" d="M476.62,-282.707C374.158,-282.707 211.78,-282.707 123.627,-282.707"/>
</g>
<!-- niem&#45;&#45;uml -->
<g id="edge2" class="edge"><title>niem&#45;&#45;uml</title>
<path fill="none" stroke="black" d="M542.346,-265.296C500.837,-238.266 421.02,-186.29 376.235,-157.127"/>
</g>
<!-- niem&#45;&#45;json -->
<g id="edge3" class="edge"><title>niem&#45;&#45;json</title>
<path fill="none" stroke="black" d="M572.353,-264.513C581.06,-216.038 604.744,-84.1899 613.405,-35.9717"/>
</g>
<!-- niem&#45;&#45;rdf -->
<g id="edge4" class="edge"><title>niem&#45;&#45;rdf</title>
<path fill="none" stroke="black" d="M629.588,-268.989C677.848,-258.046 744.301,-242.979 787.543,-233.174"/>
</g>
<!-- niem&#45;&#45;dot -->
<g id="edge5" class="edge"><title>niem&#45;&#45;dot</title>
<path fill="none" stroke="black" d="M575.814,-300.84C592.074,-344.652 633.565,-456.446 652.708,-508.027"/>
</g>
<!-- niem&#45;&#45;sql -->
<g id="edge6" class="edge"><title>niem&#45;&#45;sql</title>
<path fill="none" stroke="black" d="M542.346,-300.118C496.523,-329.958 404.015,-390.197 363.489,-416.587"/>
</g>
</g>
</svg>
