<?xml version="1.0" encoding="UTF-8" standalone="no"?>
<!DOCTYPE svg PUBLIC "-//W3C//DTD SVG 1.1//EN"
 "http://www.w3.org/Graphics/SVG/1.1/DTD/svg11.dtd">
<!-- Generated by graphviz version 2.36.0 (20140111.2315)
 -->
<!-- Title: modelmeans Pages: 1 -->
<svg width="366pt" height="305pt"
 viewBox="0.00 0.00 365.74 305.23" xmlns="http://www.w3.org/2000/svg" xmlns:xlink="http://www.w3.org/1999/xlink">
<g id="graph0" class="graph" transform="scale(1 1) rotate(0) translate(4 301.231)">
<title>modelmeans</title>
<polygon fill="white" stroke="none" points="-4,4 -4,-301.231 361.743,-301.231 361.743,4 -4,4"/>
<!-- niem -->
<g id="node1" class="node"><title>niem</title>
<ellipse fill="none" stroke="black" cx="177.501" cy="-149.085" rx="44.5955" ry="37.4533"/>
<text text-anchor="middle" x="177.501" y="-160.385" font-family="Times,serif" font-size="14.00">NIEM</text>
<text text-anchor="middle" x="177.501" y="-145.385" font-family="Times,serif" font-size="14.00">Model</text>
<text text-anchor="middle" x="177.501" y="-130.385" font-family="Times,serif" font-size="14.00">Instance</text>
</g>
<!-- xml -->
<g id="node2" class="node"><title>xml</title>
<ellipse fill="none" stroke="black" cx="326.545" cy="-149.085" rx="31.3957" ry="18"/>
<text text-anchor="middle" x="326.545" y="-145.385" font-family="Times,serif" font-size="14.00">XML</text>
</g>
<!-- niem&#45;&#45;xml -->
<g id="edge1" class="edge"><title>niem&#45;&#45;xml</title>
<path fill="none" stroke="black" d="M222.219,-149.085C245.713,-149.085 273.94,-149.085 295.105,-149.085"/>
</g>
<!-- uml -->
<g id="node3" class="node"><title>uml</title>
<ellipse fill="none" stroke="black" cx="250.139" cy="-279.231" rx="31.3957" ry="18"/>
<text text-anchor="middle" x="250.139" y="-275.531" font-family="Times,serif" font-size="14.00">UML</text>
</g>
<!-- niem&#45;&#45;uml -->
<g id="edge2" class="edge"><title>niem&#45;&#45;uml</title>
<path fill="none" stroke="black" d="M196.586,-183.28C210.709,-208.585 229.359,-242 240.512,-261.983"/>
</g>
<!-- json -->
<g id="node4" class="node"><title>json</title>
<ellipse fill="none" stroke="black" cx="98.1544" cy="-275.254" rx="32.4942" ry="18"/>
<text text-anchor="middle" x="98.1544" y="-271.554" font-family="Times,serif" font-size="14.00">JSON</text>
</g>
<!-- niem&#45;&#45;json -->
<g id="edge3" class="edge"><title>niem&#45;&#45;json</title>
<path fill="none" stroke="black" d="M156.653,-182.235C141.317,-206.62 121.096,-238.775 108.889,-258.185"/>
</g>
<!-- rdf -->
<g id="node5" class="node"><title>rdf</title>
<ellipse fill="none" stroke="black" cx="28.5975" cy="-142.588" rx="28.6953" ry="18"/>
<text text-anchor="middle" x="28.5975" y="-138.888" font-family="Times,serif" font-size="14.00">RDF</text>
</g>
<!-- niem&#45;&#45;rdf -->
<g id="edge4" class="edge"><title>niem&#45;&#45;rdf</title>
<path fill="none" stroke="black" d="M132.825,-147.136C108.325,-146.067 78.674,-144.773 57.2717,-143.839"/>
</g>
<!-- dot -->
<g id="node6" class="node"><title>dot</title>
<ellipse fill="none" stroke="black" cx="106.571" cy="-18" rx="29.4969" ry="18"/>
<text text-anchor="middle" x="106.571" y="-14.3" font-family="Times,serif" font-size="14.00">SVG</text>
</g>
<!-- niem&#45;&#45;dot -->
<g id="edge5" class="edge"><title>niem&#45;&#45;dot</title>
<path fill="none" stroke="black" d="M158.865,-114.644C145.073,-89.1565 126.862,-55.5002 115.972,-35.3733"/>
</g>
<!-- sql -->
<g id="node7" class="node"><title>sql</title>
<ellipse fill="none" stroke="black" cx="252.959" cy="-20.5537" rx="27.8951" ry="18"/>
<text text-anchor="middle" x="252.959" y="-16.8537" font-family="Times,serif" font-size="14.00">SQL</text>
</g>
<!-- niem&#45;&#45;sql -->
<g id="edge6" class="edge"><title>niem&#45;&#45;sql</title>
<path fill="none" stroke="black" d="M197.326,-115.315C211.998,-90.324 231.372,-57.3234 242.958,-37.5885"/>
</g>
</g>
</svg>
