<?xml version="1.0" encoding="UTF-8" standalone="no"?>
<!DOCTYPE svg PUBLIC "-//W3C//DTD SVG 1.1//EN"
 "http://www.w3.org/Graphics/SVG/1.1/DTD/svg11.dtd">
<!-- Generated by graphviz version 2.36.0 (20140111.2315)
 -->
<!-- Title: terms Pages: 1 -->
<svg width="773pt" height="186pt"
 viewBox="0.00 0.00 773.00 186.00" xmlns="http://www.w3.org/2000/svg" xmlns:xlink="http://www.w3.org/1999/xlink">
<g id="graph0" class="graph" transform="scale(1 1) rotate(0) translate(4 182)">
<title>terms</title>
<polygon fill="white" stroke="none" points="-4,4 -4,-182 769,-182 769,4 -4,4"/>
<g id="clust1" class="cluster"><title>cluster0</title>
<polygon fill="none" stroke="black" points="8,-8 8,-100 757,-100 757,-8 8,-8"/>
<text text-anchor="middle" x="382.5" y="-84.8" font-family="Times,serif" font-size="14.00">NIEM Model Instance (NMI)</text>
<text text-anchor="middle" x="382.5" y="-69.8" font-family="Times,serif" font-size="14.00">(XML)</text>
</g>
<!-- metamodel -->
<g id="node1" class="node"><title>metamodel</title>
<polygon fill="none" stroke="black" points="449,-178 343,-178 343,-142 449,-142 449,-178"/>
<text text-anchor="middle" x="396" y="-156.3" font-family="Times,serif" font-size="14.00">The Metamodel</text>
</g>
<!-- nmix -->
<g id="node2" class="node"><title>nmix</title>
<polygon fill="none" stroke="black" points="258,-54 16,-54 16,-16 258,-16 258,-54"/>
<text text-anchor="middle" x="137" y="-38.8" font-family="Times,serif" font-size="14.00">NIEM Model Instance in XML (NMIX)</text>
<text text-anchor="middle" x="137" y="-23.8" font-family="Times,serif" font-size="14.00">(XML Schema)</text>
</g>
<!-- metamodel&#45;&gt;nmix -->
<g id="edge1" class="edge"><title>metamodel&#45;&gt;nmix</title>
<path fill="none" stroke="black" d="M358.37,-141.925C335.409,-131.446 305.206,-117.558 277.345,-104.421"/>
<polygon fill="black" stroke="black" points="278.536,-101.112 268,-100 275.543,-107.44 278.536,-101.112"/>
<text text-anchor="middle" x="337" y="-112.3" font-family="Times,serif" font-size="14.00">defines</text>
</g>
<!-- nmij -->
<g id="node3" class="node"><title>nmij</title>
<polygon fill="none" stroke="black" points="515.25,-54 276.75,-54 276.75,-16 515.25,-16 515.25,-54"/>
<text text-anchor="middle" x="396" y="-38.8" font-family="Times,serif" font-size="14.00">NIEM Model Instance in JSON (NMIJ)</text>
<text text-anchor="middle" x="396" y="-23.8" font-family="Times,serif" font-size="14.00">(JSON Schema/JSON&#45;LD)</text>
</g>
<!-- metamodel&#45;&gt;nmij -->
<g id="edge2" class="edge"><title>metamodel&#45;&gt;nmij</title>
<path fill="none" stroke="black" d="M396,-141.897C396,-133.154 396,-121.847 396,-109.889"/>
<polygon fill="black" stroke="black" points="399.5,-109.732 396,-99.7317 392.5,-109.732 399.5,-109.732"/>
<text text-anchor="middle" x="416" y="-112.3" font-family="Times,serif" font-size="14.00">defines</text>
</g>
<!-- nmiw -->
<g id="node4" class="node"><title>nmiw</title>
<polygon fill="none" stroke="black" points="748.25,-54 533.75,-54 533.75,-16 748.25,-16 748.25,-54"/>
<text text-anchor="middle" x="641" y="-38.8" font-family="Times,serif" font-size="14.00">NIEM Model Instance in Whatever</text>
<text text-anchor="middle" x="641" y="-23.8" font-family="Times,serif" font-size="14.00">(whatever technology)</text>
</g>
<!-- metamodel&#45;&gt;nmiw -->
<g id="edge3" class="edge"><title>metamodel&#45;&gt;nmiw</title>
<path fill="none" stroke="black" d="M434.695,-141.996C457.662,-131.722 487.54,-118.041 514.85,-104.559"/>
<polygon fill="black" stroke="black" points="516.611,-107.593 524,-100 513.489,-101.327 516.611,-107.593"/>
<text text-anchor="middle" x="526" y="-112.3" font-family="Times,serif" font-size="14.00">defines</text>
</g>
</g>
</svg>
