<?xml version="1.0" encoding="UTF-8" standalone="no"?>
<!DOCTYPE svg PUBLIC "-//W3C//DTD SVG 1.1//EN"
 "http://www.w3.org/Graphics/SVG/1.1/DTD/svg11.dtd">
<!-- Generated by graphviz version 2.36.0 (20140111.2315)
 -->
<!-- Title: terms Pages: 1 -->
<svg width="729pt" height="186pt"
 viewBox="0.00 0.00 729.00 186.00" xmlns="http://www.w3.org/2000/svg" xmlns:xlink="http://www.w3.org/1999/xlink">
<g id="graph0" class="graph" transform="scale(1 1) rotate(0) translate(4 182)">
<title>terms</title>
<polygon fill="white" stroke="none" points="-4,4 -4,-182 725,-182 725,4 -4,4"/>
<g id="clust1" class="cluster"><title>cluster0</title>
<polygon fill="none" stroke="black" points="8,-8 8,-100 713,-100 713,-8 8,-8"/>
<text text-anchor="middle" x="360.5" y="-84.8" font-family="Times,serif" font-size="14.00">NIEM Model Instance (NMI)</text>
<text text-anchor="middle" x="360.5" y="-69.8" font-family="Times,serif" font-size="14.00">(in XML)</text>
</g>
<!-- metamodel -->
<g id="node1" class="node"><title>metamodel</title>
<polygon fill="none" stroke="black" points="427,-178 424,-182 403,-182 400,-178 321,-178 321,-142 427,-142 427,-178"/>
<text text-anchor="middle" x="374" y="-156.3" font-family="Times,serif" font-size="14.00">The Metamodel</text>
</g>
<!-- nmix -->
<g id="node2" class="node"><title>nmix</title>
<polygon fill="none" stroke="black" points="243.25,-54 240.25,-58 219.25,-58 216.25,-54 16.75,-54 16.75,-16 243.25,-16 243.25,-54"/>
<text text-anchor="middle" x="130" y="-38.8" font-family="Times,serif" font-size="14.00">NIEM Model Instance XML (NMIX)</text>
<text text-anchor="middle" x="130" y="-23.8" font-family="Times,serif" font-size="14.00">(in XML Schema)</text>
</g>
<!-- metamodel&#45;&gt;nmix -->
<g id="edge1" class="edge"><title>metamodel&#45;&gt;nmix</title>
<path fill="none" stroke="black" d="M337.815,-141.882C316.029,-131.492 287.5,-117.741 261.196,-104.612"/>
<polygon fill="black" stroke="black" points="262.508,-101.354 252,-100 259.37,-107.611 262.508,-101.354"/>
<text text-anchor="middle" x="318" y="-112.3" font-family="Times,serif" font-size="14.00">defines</text>
</g>
<!-- nmij -->
<g id="node3" class="node"><title>nmij</title>
<polygon fill="none" stroke="black" points="486.25,-54 483.25,-58 462.25,-58 459.25,-54 261.75,-54 261.75,-16 486.25,-16 486.25,-54"/>
<text text-anchor="middle" x="374" y="-38.8" font-family="Times,serif" font-size="14.00">NIEM Model Instance JSON (NMIJ)</text>
<text text-anchor="middle" x="374" y="-23.8" font-family="Times,serif" font-size="14.00">(in JSON Schema/JSON&#45;LD)</text>
</g>
<!-- metamodel&#45;&gt;nmij -->
<g id="edge2" class="edge"><title>metamodel&#45;&gt;nmij</title>
<path fill="none" stroke="black" d="M374,-141.897C374,-133.154 374,-121.847 374,-109.889"/>
<polygon fill="black" stroke="black" points="377.5,-109.732 374,-99.7317 370.5,-109.732 377.5,-109.732"/>
<text text-anchor="middle" x="394" y="-112.3" font-family="Times,serif" font-size="14.00">defines</text>
</g>
<!-- nmiw -->
<g id="node4" class="node"><title>nmiw</title>
<polygon fill="none" stroke="black" points="705,-54 702,-58 681,-58 678,-54 505,-54 505,-16 705,-16 705,-54"/>
<text text-anchor="middle" x="605" y="-38.8" font-family="Times,serif" font-size="14.00">NIEM Model Instance Whatever</text>
<text text-anchor="middle" x="605" y="-23.8" font-family="Times,serif" font-size="14.00">(in whatever technology)</text>
</g>
<!-- metamodel&#45;&gt;nmiw -->
<g id="edge3" class="edge"><title>metamodel&#45;&gt;nmiw</title>
<path fill="none" stroke="black" d="M410.887,-141.875C432.492,-131.657 460.478,-118.101 486.064,-104.72"/>
<polygon fill="black" stroke="black" points="487.792,-107.765 495,-100 484.523,-101.576 487.792,-107.765"/>
<text text-anchor="middle" x="498" y="-112.3" font-family="Times,serif" font-size="14.00">defines</text>
</g>
</g>
</svg>
