<?xml version="1.0" encoding="UTF-8" standalone="no"?>
<!DOCTYPE svg PUBLIC "-//W3C//DTD SVG 1.1//EN"
 "http://www.w3.org/Graphics/SVG/1.1/DTD/svg11.dtd">
<!-- Generated by graphviz version 2.36.0 (20140111.2315)
 -->
<!-- Title: specs Pages: 1 -->
<svg width="1064pt" height="188pt"
 viewBox="0.00 0.00 1064.00 188.00" xmlns="http://www.w3.org/2000/svg" xmlns:xlink="http://www.w3.org/1999/xlink">
<g id="graph0" class="graph" transform="scale(1 1) rotate(0) translate(4 184)">
<title>specs</title>
<polygon fill="white" stroke="none" points="-4,4 -4,-184 1060,-184 1060,4 -4,4"/>
<g id="clust1" class="cluster"><title>cluster0</title>
<polygon fill="none" stroke="black" points="8,-8 8,-100 1048,-100 1048,-8 8,-8"/>
<text text-anchor="middle" x="528" y="-84.8" font-family="Times,serif" font-size="14.00">NIEM Model Instance</text>
<text text-anchor="middle" x="528" y="-69.8" font-family="Times,serif" font-size="14.00">(A conceptual model, following the rules in the Metamodel)</text>
</g>
<!-- metamodel -->
<g id="node1" class="node"><title>metamodel</title>
<polygon fill="none" stroke="black" points="587,-180 584,-184 563,-184 560,-180 391,-180 391,-142 587,-142 587,-180"/>
<text text-anchor="middle" x="489" y="-164.8" font-family="Times,serif" font-size="14.00">The Metamodel</text>
<text text-anchor="middle" x="489" y="-149.8" font-family="Times,serif" font-size="14.00">(Defines what models look like)</text>
</g>
<!-- nmix -->
<g id="node2" class="node"><title>nmix</title>
<polygon fill="none" stroke="black" points="319.25,-54 316.25,-58 295.25,-58 292.25,-54 16.75,-54 16.75,-16 319.25,-16 319.25,-54"/>
<text text-anchor="middle" x="168" y="-38.8" font-family="Times,serif" font-size="14.00">NIEM Model Instance (XML)</text>
<text text-anchor="middle" x="168" y="-23.8" font-family="Times,serif" font-size="14.00">(A conceptual model instantiated in XML Schema)</text>
</g>
<!-- metamodel&#45;&gt;nmix -->
<g id="edge1" class="edge"><title>metamodel&#45;&gt;nmix</title>
<path fill="none" stroke="black" d="M440.242,-141.998C411.226,-131.221 373.41,-117.067 338.698,-103.735"/>
<polygon fill="black" stroke="black" points="339.59,-100.328 329,-100 337.074,-106.86 339.59,-100.328"/>
<text text-anchor="middle" x="410" y="-112.3" font-family="Times,serif" font-size="14.00">defines</text>
</g>
<!-- nmij -->
<g id="node3" class="node"><title>nmij</title>
<polygon fill="none" stroke="black" points="640.25,-54 637.25,-58 616.25,-58 613.25,-54 337.75,-54 337.75,-16 640.25,-16 640.25,-54"/>
<text text-anchor="middle" x="489" y="-38.8" font-family="Times,serif" font-size="14.00">NIEM Model Instance (JSON)</text>
<text text-anchor="middle" x="489" y="-23.8" font-family="Times,serif" font-size="14.00">(A conceptual model instantiated in JSON schema)</text>
</g>
<!-- metamodel&#45;&gt;nmij -->
<g id="edge2" class="edge"><title>metamodel&#45;&gt;nmij</title>
<path fill="none" stroke="black" d="M489,-141.969C489,-133.135 489,-121.846 489,-109.947"/>
<polygon fill="black" stroke="black" points="492.5,-109.848 489,-99.8484 485.5,-109.848 492.5,-109.848"/>
<text text-anchor="middle" x="509" y="-112.3" font-family="Times,serif" font-size="14.00">defines</text>
</g>
<!-- nmiw -->
<g id="node4" class="node"><title>nmiw</title>
<polygon fill="none" stroke="black" points="1039.25,-54 1036.25,-58 1015.25,-58 1012.25,-54 658.75,-54 658.75,-16 1039.25,-16 1039.25,-54"/>
<text text-anchor="middle" x="849" y="-38.8" font-family="Times,serif" font-size="14.00">NIEM Model Instance (whatever)</text>
<text text-anchor="middle" x="849" y="-23.8" font-family="Times,serif" font-size="14.00">(A conceptual model instantiated in something other technology)</text>
</g>
<!-- metamodel&#45;&gt;nmiw -->
<g id="edge3" class="edge"><title>metamodel&#45;&gt;nmiw</title>
<path fill="none" stroke="black" d="M541.347,-141.969C571.886,-131.45 612.524,-117.453 654.228,-103.088"/>
<polygon fill="black" stroke="black" points="655.389,-106.39 663.704,-99.8241 653.11,-99.7716 655.389,-106.39"/>
<text text-anchor="middle" x="656" y="-112.3" font-family="Times,serif" font-size="14.00">defines</text>
</g>
</g>
</svg>
