<?xml version="1.0" encoding="UTF-8" standalone="no"?>
<!DOCTYPE svg PUBLIC "-//W3C//DTD SVG 1.1//EN"
 "http://www.w3.org/Graphics/SVG/1.1/DTD/svg11.dtd">
<!-- Generated by graphviz version 2.36.0 (20140111.2315)
 -->
<!-- Title: specs Pages: 1 -->
<svg width="659pt" height="169pt"
 viewBox="0.00 0.00 659.00 169.00" xmlns="http://www.w3.org/2000/svg" xmlns:xlink="http://www.w3.org/1999/xlink">
<g id="graph0" class="graph" transform="scale(1 1) rotate(0) translate(4 165)">
<title>specs</title>
<polygon fill="white" stroke="none" points="-4,4 -4,-165 655,-165 655,4 -4,4"/>
<g id="clust1" class="cluster"><title>cluster0</title>
<polygon fill="none" stroke="black" points="8,-8 8,-83 643,-83 643,-8 8,-8"/>
<text text-anchor="middle" x="325.5" y="-67.8" font-family="Times,serif" font-size="14.00">NIEM Model Instance</text>
</g>
<!-- metamodel -->
<g id="node1" class="node"><title>metamodel</title>
<polygon fill="none" stroke="black" points="368,-161 365,-165 344,-165 341,-161 262,-161 262,-125 368,-125 368,-161"/>
<text text-anchor="middle" x="315" y="-139.3" font-family="Times,serif" font-size="14.00">The Metamodel</text>
</g>
<!-- nmix -->
<g id="node2" class="node"><title>nmix</title>
<polygon fill="none" stroke="black" points="202,-52 199,-56 178,-56 175,-52 16,-52 16,-16 202,-16 202,-52"/>
<text text-anchor="middle" x="109" y="-30.3" font-family="Times,serif" font-size="14.00">NIEM Model Instance (XML)</text>
</g>
<!-- metamodel&#45;&gt;nmix -->
<g id="edge1" class="edge"><title>metamodel&#45;&gt;nmix</title>
<path fill="none" stroke="black" d="M281.903,-124.809C262.254,-114.603 236.18,-101.06 210.254,-87.593"/>
<polygon fill="black" stroke="black" points="211.588,-84.342 201.1,-82.8385 208.361,-90.554 211.588,-84.342"/>
<text text-anchor="middle" x="262" y="-95.3" font-family="Times,serif" font-size="14.00">defines</text>
</g>
<!-- nmij -->
<g id="node3" class="node"><title>nmij</title>
<polygon fill="none" stroke="black" points="409.25,-52 406.25,-56 385.25,-56 382.25,-52 220.75,-52 220.75,-16 409.25,-16 409.25,-52"/>
<text text-anchor="middle" x="315" y="-30.3" font-family="Times,serif" font-size="14.00">NIEM Model Instance (JSON)</text>
</g>
<!-- metamodel&#45;&gt;nmij -->
<g id="edge2" class="edge"><title>metamodel&#45;&gt;nmij</title>
<path fill="none" stroke="black" d="M315,-124.809C315,-115.952 315,-104.582 315,-92.9294"/>
<polygon fill="black" stroke="black" points="318.5,-92.6728 315,-82.6729 311.5,-92.6729 318.5,-92.6728"/>
<text text-anchor="middle" x="335" y="-95.3" font-family="Times,serif" font-size="14.00">defines</text>
</g>
<!-- nmiw -->
<g id="node4" class="node"><title>nmiw</title>
<polygon fill="none" stroke="black" points="634.25,-52 631.25,-56 610.25,-56 607.25,-52 427.75,-52 427.75,-16 634.25,-16 634.25,-52"/>
<text text-anchor="middle" x="531" y="-30.3" font-family="Times,serif" font-size="14.00">NIEM Model Instance (whatever)</text>
</g>
<!-- metamodel&#45;&gt;nmiw -->
<g id="edge3" class="edge"><title>metamodel&#45;&gt;nmiw</title>
<path fill="none" stroke="black" d="M349.704,-124.809C370.44,-114.537 398.001,-100.884 425.36,-87.331"/>
<polygon fill="black" stroke="black" points="427.213,-90.3189 434.62,-82.7437 424.106,-84.0463 427.213,-90.3189"/>
<text text-anchor="middle" x="436" y="-95.3" font-family="Times,serif" font-size="14.00">defines</text>
</g>
</g>
</svg>
